<svg xmlns="http://www.w3.org/2000/svg" width="65.9" height="63.8" viewBox="0 0 65.9 63.8"><defs><style>.cls-1{fill:#706f6f;}.cls-2{fill:none;}.cls-2,.cls-3,.cls-4{stroke:#706f6f;}.cls-3,.cls-4{fill:#fff;}.cls-3{stroke-linejoin:bevel;}</style></defs><title>blog</title><g id="Ebene_2" data-name="Ebene 2"><g id="Ebene_1-2" data-name="Ebene 1"><path class="cls-1" d="M11.07,32.9c0,3.12-1.19,5.67-2.64,5.67H3.15C1.69,38.57.5,36,.5,32.9V24.24c0-3.12,1.19-5.67,2.65-5.67H8.43c1.45,0,2.64,2.55,2.64,5.67Z"/><path class="cls-2" d="M11.07,32.9c0,3.12-1.19,5.67-2.64,5.67H3.15C1.69,38.57.5,36,.5,32.9V24.24c0-3.12,1.19-5.67,2.65-5.67H8.43c1.45,0,2.64,2.55,2.64,5.67Z"/><polygon class="cls-1" points="34.43 63.8 20.02 63.8 14.73 36.03 27.43 36.03 31.54 57.63 33.54 59.1 34.43 63.8"/><polygon class="cls-3" points="30.78 47.88 15.51 47.88 10.23 20.1 25.49 20.1 30.78 47.88"/><path class="cls-4" d="M59.81,53.81S43.33,38.5,5.8,38.5V18.64c36.63,0,54-16.16,54-16.16Z"/><path class="cls-1" d="M65.4,52.92a2.8,2.8,0,1,1-5.6,0V3.33a2.8,2.8,0,1,1,5.6,0Z"/><path class="cls-2" d="M65.4,52.92a2.8,2.8,0,1,1-5.6,0V3.33a2.8,2.8,0,1,1,5.6,0Z"/></g></g></svg>