<?xml version="1.0" encoding="utf-8"?>
<!-- Generator: Adobe Illustrator 16.0.4, SVG Export Plug-In . SVG Version: 6.00 Build 0)  -->
<!DOCTYPE svg PUBLIC "-//W3C//DTD SVG 1.1//EN" "http://www.w3.org/Graphics/SVG/1.1/DTD/svg11.dtd">
<svg version="1.1" id="Ebene_1" xmlns="http://www.w3.org/2000/svg" xmlns:xlink="http://www.w3.org/1999/xlink" x="0px" y="0px"
	 width="720px" height="180px" viewBox="0 0 720 180" enable-background="new 0 0 720 180" xml:space="preserve">
<g>
	<g>
		<polygon fill="#706F6F" points="99.748,90.713 80.25,90.713 79.544,87.737 100.455,87.737 		"/>
		<polygon fill="#706F6F" points="98.809,95.492 81.191,95.492 80.486,92.516 99.514,92.516 		"/>
		<polygon fill="#706F6F" points="94.114,102.219 85.887,102.219 84.608,96.893 95.392,96.893 		"/>
	</g>
	<path fill="#706F6F" d="M110.786,39.695c-3.771-7.106-12.337-11.688-20.233-11.908c-8.285-0.208-17.385,4.458-21.34,11.908
		c-6.066,11.438-2.719,20.987,1.428,26.543c2.827,3.786,5.425,8.319,6.033,11.129c0.674,3.137,0.604,6.048,2.48,8.716h21.701
		c0.873-1.209,1.292-2.302,1.607-3.843c0.283-1.372,0.453-2.953,0.864-4.873c0.607-2.81,3.207-7.343,6.032-11.129
		C113.508,60.683,116.853,51.133,110.786,39.695z M108.621,60.41c-0.658,1.209-1.431,2.32-2.295,3.327
		c5.069-9.576,1.24-21.617-8.626-26.994c-8.688-4.732-19.181-2.729-25.183,4.27c0.038-0.069,0.072-0.14,0.111-0.208
		c5.234-9.61,17.535-13.011,27.474-7.598C110.044,38.621,113.855,50.802,108.621,60.41z"/>
</g>
<g>
	<polygon fill="#706F6F" points="264.161,74.756 262.817,32.286 257.534,32.286 256.154,70.446 	"/>
	<polygon fill="#706F6F" points="283.538,74.788 282.38,37.982 276.603,37.982 275.412,70.417 	"/>
	<path fill="#706F6F" d="M289.235,68.864v10.395l-19.318-10.395v10.395l-19.318-10.395v10.395l-18.986-10.395v32.85h76.774V79.259
		L289.235,68.864z M255.718,97.751h-18.823V87.023h18.823V97.751z M279.411,97.751h-18.823V87.023h18.823V97.751z M303.103,97.751
		H284.28V87.023h18.823V97.751z"/>
</g>
<g>
	<g>
		
			<linearGradient id="SVGID_1_" gradientUnits="userSpaceOnUse" x1="691.0566" y1="-288" x2="753.9443" y2="-288" gradientTransform="matrix(1 0 0 -1 -272.5 -215)">
			<stop  offset="0" style="stop-color:#FFFFFF"/>
			<stop  offset="1" style="stop-color:#F4F4F5"/>
		</linearGradient>
		<path fill="url(#SVGID_1_)" stroke="#A7A7A6" d="M435.049,88.291h-16.492V44.027h62.888v44.264h-25.93l-20.466,13.682V88.291
			L435.049,88.291z"/>
	</g>
	<g>
		<rect x="425.547" y="52.605" fill="#706F6F" width="42.242" height="3.697"/>
		<rect x="425.547" y="60.203" fill="#706F6F" width="39.564" height="3.699"/>
		<rect x="425.547" y="67.801" fill="#706F6F" width="44.916" height="3.697"/>
		<rect x="425.547" y="75.398" fill="#706F6F" width="41.953" height="3.697"/>
	</g>
</g>
<polygon fill="#FFFFFF" stroke="#A11A5B" stroke-width="0.75" stroke-miterlimit="10" points="656.893,29.613 643.615,105.387 
	622.438,105.387 603.108,68.669 618.479,56.834 630.559,83.858 630.85,85.376 631.138,84.491 641.525,45.001 "/>
</svg>
